<?xml version="1.0" encoding="utf-8"?>
<!-- Generator: Adobe Illustrator 19.2.1, SVG Export Plug-In . SVG Version: 6.00 Build 0)  -->
<svg version="1.1" id="layer" xmlns="http://www.w3.org/2000/svg" xmlns:xlink="http://www.w3.org/1999/xlink" x="0px" y="0px"
	 viewBox="0 0 652 652" style="enable-background:new 0 0 652 652;" xml:space="preserve">
<style type="text/css">
	.st0{fill:#212121;}
</style>
<path class="st0" d="M94.1,300.1H22v-10.7h72.1V300.1z M94,326.8H22v-10.7h72V326.8z M94,342.8v10.7H22v-10.7H94z M171.7,300.2
	l-25.7,0.1c-17.2,0-25.3,7-25.3,21.2c0,14.2,8.1,21.3,25.2,21.3h36v10.6l-36,0.1c-24,0-36-10.6-36-31.8c0-21.3,11.9-31.9,35.7-32
	H182v10.7C182,300.2,171.7,300.2,171.7,300.2z M233.7,289.6c24.2,0,36.2,10.6,36.2,31.9s-12,31.9-36,31.9c-24,0-36-10.6-36-31.8
	C198,300.3,209.9,289.7,233.7,289.6L233.7,289.6z M259.1,321.5c0-14.2-8-21.2-25.2-21.2c-17.2,0-25.1,7-25.1,21.2
	c0,14.2,7.9,21.3,25.1,21.3C251.1,342.8,259.1,335.7,259.1,321.5z M611.7,289.6l0,53.1h-20.6v-53.2h-10.3v53.2h-20.6v-53.3h-10.3v64
	h61.8c7.7,0,10.3-4.1,10.3-10.6v-53.3L611.7,289.6L611.7,289.6L611.7,289.6z M446,342.8h-54.1c-4.2,0-7.7-3.4-7.7-7.7v-45.6H374
	v48.4c0,8.6,6.9,15.5,15.5,15.5H446L446,342.8L446,342.8z M497.6,289.6c24.2,0,36.2,10.6,36.2,31.9s-12,31.9-36,31.9
	c-24,0-36-10.6-36-31.8C461.9,300.3,473.8,289.7,497.6,289.6z M523.1,321.5c0-14.2-8-21.2-25.2-21.2c-17.2,0-25.1,7-25.1,21.2
	c0,14.2,7.9,21.3,25.1,21.3C515,342.8,523.1,335.7,523.1,321.5z M288.3,289.4h70.8v10.1h-70.8V289.4z M359.1,327h-60.7v26.4h-10.1
	v-37.1h70.8V327z"/>
</svg>
